# xmcd
#
# Track frame offsets: 
#        150
#        15871
#        29817
#        45247
#        61589
#        84097
#        100955
#        129046
#        145123
#        167419
#        188099
#        205059
#        233902
#        252672
#        274410
#        300937
#        322498
#
# Disc length: 4704 seconds
#
# Revision: 0
# Processed by: cddbd v1.5.2PL0 Copyright (c) Steve Scherf et al.
# Submitted via: ExactAudioCopy v1.1
#
DISCID=d8125e11
DTITLE=J. Blackfoot - Taxi - The Best Of The sound Town and Edge Years
DYEAR=2012
DGENRE=R&B
TTITLE0=I Don't Remember Loving You
TTITLE1=If I Don't Love You
TTITLE2=One Of Those Parties
TTITLE3=Just To Be With You
TTITLE4=Taxi
TTITLE5=Where Is Love
TTITLE6=I Stood On The Sidewalk
TTITLE7=All Because Of What You Did To Me
TTITLE8=Hiding Place
TTITLE9=The Girl Next Door
TTITLE10=See Saw
TTITLE11=U-Turn
TTITLE12=Bad Weather
TTITLE13=Tear Jerker
TTITLE14=Respect Yourself
TTITLE15=Sunshine Lady
TTITLE16=Let Me Put You Up For The Night
EXTD=
EXTT0=
EXTT1=
EXTT2=
EXTT3=
EXTT4=
EXTT5=
EXTT6=
EXTT7=
EXTT8=
EXTT9=
EXTT10=
EXTT11=
EXTT12=
EXTT13=
EXTT14=
EXTT15=
EXTT16=
PLAYORDER=
